<?xml version="1.0" encoding="UTF-8" standalone="no"?><svg xmlns="http://www.w3.org/2000/svg" xml:space="preserve" viewBox="0 0 45 45"><defs><clipPath id="a" clipPathUnits="userSpaceOnUse"><path d="M0 36h36V0H0Z"/></clipPath></defs><g fill="#f4abba" clip-path="url(#a)" transform="matrix(1.25 0 0 -1.25 0 45)"><path d="M35.8848 24.1665c0 5.45-4.418 9.868-9.867 9.868-3.308 0-6.227-1.633-8.018-4.129-1.79 2.496-4.71 4.129-8.017 4.129-5.45 0-9.868-4.418-9.868-9.868 0-.772.098-1.52.266-2.241 1.371-8.512 10.835-17.494 17.619-19.96 6.783 2.466 16.249 11.448 17.617 19.96.17.721.268 1.469.268 2.241"/></g></svg>